PathFileType	4	(X/Y/Z)	s06c0301.trc
DataRate	CameraRate	NumFrames	NumMarkers	Units	OrigDataRate	OrigDataStartFrame	OrigNumFrames
200	200	4	48	mm	200	0	2000
Frame#	Time	racr			lacr			c7			jug			rlel			rdr			llel			ldr			s2			lic			ric			lasi			rasi			rpsi			lpsi			rgt			lgt			rth1			rth2			rth3			rth4			rlfc			rmfc			rsh1			rsh2			rsh3			rsh4			rlmal			rcal			rtoe			rmt5			lth1			lth2			lth4			lth3			llfc			lmfc			llmal			lcal			lmt5			lsh1			lsh2			lsh3			lsh4			ltoe			SBIKE			LBIKE			RBIKE			
		X1	Y1	Z1	X2	Y2	Z2	X3	Y3	Z3	X4	Y4	Z4	X5	Y5	Z5	X6	Y6	Z6	X7	Y7	Z7	X8	Y8	Z8	X9	Y9	Z9	X10	Y10	Z10	X11	Y11	Z11	X12	Y12	Z12	X13	Y13	Z13	X14	Y14	Z14	X15	Y15	Z15	X16	Y16	Z16	X17	Y17	Z17	X18	Y18	Z18	X19	Y19	Z19	X20	Y20	Z20	X21	Y21	Z21	X22	Y22	Z22	X23	Y23	Z23	X24	Y24	Z24	X25	Y25	Z25	X26	Y26	Z26	X27	Y27	Z27	X28	Y28	Z28	X29	Y29	Z29	X30	Y30	Z30	X31	Y31	Z31	X32	Y32	Z32	X33	Y33	Z33	X34	Y34	Z34	X35	Y35	Z35	X36	Y36	Z36	X37	Y37	Z37	X38	Y38	Z38	X39	Y39	Z39	X40	Y40	Z40	X41	Y41	Z41	X42	Y42	Z42	X43	Y43	Z43	X44	Y44	Z44	X45	Y45	Z45	X46	Y46	Z46	X47	Y47	Z47	X48	Y48	Z48	
0	0.0000	407.458460	1288.483450	-72.175463	425.043202	1297.072051	-395.760862	408.592142	1398.854700	-230.827746	420.681580	1226.612254	-220.815742	509.725445	1067.413307	8.164331	711.093098	918.116564	-58.912574	506.821522	1057.163310	-471.244073	709.597715	921.817239	-399.297505	-107.937008	1163.470001	-228.314901	83.370708	1099.287537	-392.435852	44.791097	1121.704159	-56.477175	77.754731	1041.136523	-361.533431	0.000000	0.000000	-0.000000	-64.973626	1196.538302	-204.756075	-66.510035	1188.539976	-265.547544	-6.044035	1071.572301	-23.105318	28.673626	1042.131990	-426.364446	95.077794	993.129998	-19.457882	180.000991	959.507764	-21.320774	233.136958	890.587296	-26.752843	198.860951	987.446975	-39.074852	296.179511	804.989976	-43.850555	298.335601	779.073826	-153.117929	280.528642	683.336878	-17.709885	290.872458	598.306130	-39.150416	260.912060	516.835518	-42.877040	313.999924	600.151612	-70.699404	247.799716	431.222318	-49.734550	189.639821	395.702144	-99.789794	464.656202	406.723682	-106.320260	372.693696	374.879261	-33.489085	72.575489	931.546092	-433.106174	140.691862	879.281091	-424.542397	168.956214	900.124219	-412.287643	174.165640	795.814148	-417.817195	200.386767	688.921271	-391.248018	199.817210	670.477404	-277.306900	-17.301845	386.529390	-387.710901	-94.250482	386.135130	-341.949330	72.465408	277.061571	-406.644913	141.105002	601.230078	-415.738973	110.107903	521.751683	-397.703040	42.279940	463.496230	-397.210376	131.316786	511.005940	-366.674947	153.251024	252.595018	-346.033786	-204.647035	866.423572	-221.219667	-49.163632	79.730885	-420.034624	-50.002223	79.198579	-22.636525	
1	0.0050	407.556658	1288.487581	-72.213336	425.119078	1297.132267	-395.781287	408.676533	1398.853669	-230.881066	420.726036	1226.591934	-220.857263	509.716431	1067.390083	8.221301	711.104202	918.134949	-58.917193	506.853514	1057.167240	-471.265657	709.593906	921.831842	-399.325972	-107.868659	1163.461520	-228.356564	83.442355	1099.200657	-392.492467	44.832527	1121.708876	-56.493492	77.839485	1041.035068	-361.606817	0.000000	0.000000	-0.000000	-64.322408	1196.267523	-205.190481	-66.453360	1188.533711	-265.575440	-5.957321	1071.662498	-23.106613	28.688183	1042.050817	-426.364060	95.211230	993.330135	-19.463611	180.120438	959.701868	-21.367544	233.300704	890.834249	-26.776351	198.874093	987.495009	-39.122884	296.338451	805.229747	-43.908096	298.514381	779.252132	-153.169663	280.634579	683.628504	-17.763899	290.906816	598.492309	-39.190304	260.855577	517.090111	-42.911525	314.007388	600.399813	-70.750249	247.695235	431.495598	-49.765009	189.511343	396.041441	-99.816574	464.546616	407.071634	-106.327193	372.614933	375.129765	-33.493529	72.524020	931.433983	-433.152873	140.611130	879.133276	-424.613152	168.868388	899.900989	-412.355976	174.026381	795.628466	-417.884430	200.219919	688.736673	-391.316766	199.669116	670.271521	-277.391929	-17.284186	386.223191	-387.688450	-94.242958	385.785582	-341.943245	72.532246	276.756258	-406.649401	140.923638	600.994936	-415.832372	110.024240	521.503850	-397.747962	42.226907	463.215179	-397.220775	131.223743	510.816781	-366.742005	153.334767	252.370833	-346.058007	-204.645920	866.412898	-221.218964	-49.165424	79.748308	-420.043101	-50.105420	79.476375	-22.433918	
2	0.0100	407.647632	1288.482299	-72.240611	425.185456	1297.166390	-395.810930	408.740008	1398.864440	-230.914253	420.851372	1226.594345	-220.884239	509.689727	1067.359151	8.288495	711.097625	918.129015	-58.900558	506.867929	1057.191184	-471.287887	709.595306	921.846873	-399.330368	-107.820671	1163.459190	-228.381562	83.513183	1099.124458	-392.543117	44.878565	1121.719043	-56.502021	77.917486	1040.892878	-361.628694	0.000000	0.000000	-0.000000	-64.297406	1196.278837	-205.206244	-66.399792	1188.522958	-265.612458	-5.905100	1071.774570	-23.105523	28.735890	1041.957359	-426.371390	95.312302	993.442232	-19.495962	180.235899	959.881585	-21.382563	233.467568	891.018655	-26.792503	199.104847	987.895076	-39.100695	296.559506	805.479333	-43.948762	298.687762	779.445852	-153.254143	280.755852	683.864051	-17.798614	290.923647	598.692935	-39.207976	260.820775	517.323077	-42.930037	314.053483	600.591333	-70.769048	247.598341	431.756860	-49.773936	189.386939	396.347311	-99.808333	464.447844	407.409706	-106.321370	372.554198	375.426550	-33.505428	72.469450	931.314283	-433.177822	140.526059	878.954766	-424.689328	168.810960	899.719370	-412.437760	173.905948	795.445991	-417.936455	200.048405	688.550746	-391.384063	199.548582	670.086622	-277.472220	-17.285802	385.902404	-387.684115	-94.239472	385.453289	-341.906019	72.599000	276.469356	-406.629021	140.790936	600.774180	-415.885523	109.920478	521.287068	-397.806459	42.147227	462.978492	-397.238103	131.150853	510.583573	-366.795234	153.417809	252.166649	-346.064638	-204.650092	866.412398	-221.208106	-49.151006	79.744856	-420.034472	-50.097270	79.501685	-22.423085	
3	0.0150	407.499369	1289.135023	-71.639616	425.189909	1297.402090	-396.652031	408.815618	1398.853616	-230.958278	420.842187	1226.544816	-220.953097	509.676254	1067.307176	8.375075	711.110203	918.130720	-58.894922	506.854742	1057.297449	-471.677345	709.607149	921.847206	-399.327605	-107.422307	1163.673119	-228.783265	83.583184	1098.990522	-392.605478	44.728305	1121.711116	-56.549239	77.985062	1040.755575	-361.638067	0.000000	0.000000	-0.000000	-64.996948	1196.336954	-204.545544	-66.521318	1188.651514	-265.670823	-5.835634	1071.904841	-23.103332	28.748476	1041.900453	-426.337434	95.443582	993.605685	-19.531867	180.371388	960.081880	-21.438758	233.644531	891.252457	-26.794890	199.321312	988.021608	-39.172100	296.929090	805.575614	-43.909961	298.871492	779.713761	-153.299575	280.868583	684.088214	-17.830489	290.761335	598.826975	-39.381135	260.823181	517.529844	-42.937931	314.150360	600.758258	-70.853646	247.698190	431.779778	-49.929897	188.996546	397.007541	-99.504286	464.344035	407.735092	-106.281651	372.471776	375.761953	-33.506909	72.423540	931.201474	-433.227387	140.688853	878.066851	-424.411191	168.684141	899.500499	-412.359764	173.756430	795.235877	-417.975447	199.902465	688.196131	-391.516043	199.427543	669.918780	-277.519694	-17.305105	385.568033	-387.671081	-94.219422	385.082222	-341.900428	72.643185	276.263143	-406.611548	140.662439	600.593439	-415.946989	109.711157	520.927491	-397.808291	41.924634	462.918056	-397.583960	131.140771	510.333549	-366.893545	153.491121	251.949336	-346.065877	-204.738657	866.390769	-221.426234	-49.136940	79.765068	-420.019309	-50.012092	79.172597	-22.650351	
